# xmcd CD database file
#
# Track frame offsets:
#	150
#	17109
#	36699
#	56811
#	75181
#	94476
#	114550
#	133094
#	151603
#	170286
#
# Disc length: 2542 seconds
#
# Revision: 0
# Processed by: cddbd v1.5.1PL2 Copyright (c) Steve Scherf et al.
# Submitted via: CDex 1.60beta1-cs1
#
DISCID=7c09ec0a
DTITLE=Faith - Frith
DYEAR=1900
DGENRE=Pop
TTITLE0=Love Me Agein
TTITLE1=Faith - SUKO NA ANG PUSO
TTITLE2=Faith - IKAW
TTITLE3=Faith - PAG-IBIG KO'Y PANSININ
TTITLE4=Faith - WALANG IBANG MAMAHALIN
TTITLE5=Faith - MAGBALIK KA
TTITLE6=Faith - SANA'Y IKAW AT AKO
TTITLE7=Faith - HANDOG
TTITLE8=Faith - ASAM
TTITLE9=Faith - 'DI KO NA KAYA (ALBUM EDIT)
EXTD=
EXTT0=
EXTT1=
EXTT2=
EXTT3=
EXTT4=
EXTT5=
EXTT6=
EXTT7=
EXTT8=
EXTT9=
PLAYORDER=
